<svg width="525" height="907" viewBox="0 0 525 907" fill="none" xmlns="http://www.w3.org/2000/svg">
<path d="M57.3332 1.59979C38.3998 5.19979 17.4665 21.1998 8.79984 38.7998C4.53317 47.5998 0.666504 62.5331 0.666504 70.6665C0.666504 78.7998 4.53317 93.7331 8.79984 102.666C12.6665 110.666 26.2665 124.533 183.867 282.266L354.667 453.333L183.867 624.266C26.2665 782.133 12.6665 796 8.79984 804C4.53317 812.933 0.666504 827.866 0.666504 836C0.666504 838.533 1.59984 844.8 2.6665 850C10.2665 886.133 45.1998 910.8 81.1999 905.6C88.1332 904.533 95.4665 902.4 102 899.333C111.867 894.666 114.8 891.733 312.267 694.266C491.467 514.933 512.8 493.066 516.533 485.733C527.067 464.4 527.067 442.266 516.533 420.933C512.8 413.6 491.467 391.733 312.933 212.933C132.8 32.7998 112.4 12.7998 104.4 8.53312C89.8665 0.933123 73.4665 -1.46688 57.3332 1.59979Z" fill="#222296"/>
</svg>
