<?xml version="1.0" standalone="no"?>
<!DOCTYPE svg PUBLIC "-//W3C//DTD SVG 20010904//EN"
 "http://www.w3.org/TR/2001/REC-SVG-20010904/DTD/svg10.dtd">
<svg version="1.0" xmlns="http://www.w3.org/2000/svg"
 width="980.000000pt" height="680.000000pt" viewBox="0 0 980.000000 680.000000"
 preserveAspectRatio="xMidYMid meet">

<g transform="translate(0.000000,680.000000) scale(0.100000,-0.100000)"
fill="#000000" stroke="none">
<path d="M3284 6786 c-153 -35 -49 62 -1687 -1574 -1338 -1338 -1501 -1504
-1532 -1563 -85 -162 -85 -336 0 -498 31 -59 194 -225 1532 -1563 l1498 -1497
78 -36 c209 -96 439 -56 598 105 41 42 78 92 98 131 32 66 61 178 61 239 0 61
-29 173 -61 240 -29 60 -131 165 -1313 1348 l-1281 1282 1281 1283 c1182 1182
1284 1287 1313 1347 32 67 61 179 61 240 0 19 -7 67 -15 105 -50 238 -248 408
-490 421 -48 2 -104 -2 -141 -10z"/>
<path d="M6295 6788 c-142 -27 -299 -147 -364 -279 -32 -66 -61 -178 -61 -239
0 -61 29 -173 61 -240 29 -60 131 -164 1313 -1347 l1281 -1283 -1281 -1282
c-1182 -1184 -1284 -1288 -1313 -1348 -32 -67 -61 -179 -61 -240 0 -19 7 -66
15 -105 57 -271 319 -456 589 -417 52 8 107 24 156 47 74 35 96 57 1577 1538
1344 1345 1504 1509 1532 1564 79 160 79 326 0 486 -28 55 -188 219 -1527
1560 -1351 1351 -1504 1501 -1564 1533 -109 57 -232 75 -353 52z"/>
</g>
</svg>
