<svg width="524" height="907" viewBox="0 0 524 907" fill="none" xmlns="http://www.w3.org/2000/svg">
<path d="M437.867 1.86642C417.467 6.53309 431.333 -6.40024 212.933 211.733C34.5332 390.133 12.7998 412.266 8.6665 420.133C-2.66683 441.733 -2.66683 464.933 8.6665 486.533C12.7998 494.4 34.5332 516.533 212.933 694.933L412.667 894.533L423.067 899.333C450.933 912.133 481.6 906.8 502.8 885.333C508.267 879.733 513.2 873.066 515.867 867.866C520.133 859.066 524 844.133 524 836C524 827.866 520.133 812.933 515.867 804C512 796 498.4 782 340.8 624.266L170 453.333L340.8 282.266C498.4 124.666 512 110.666 515.867 102.666C520.133 93.7331 524 78.7998 524 70.6664C524 68.1331 523.067 61.7331 522 56.6664C515.333 24.9331 488.933 2.26642 456.667 0.533091C450.267 0.266424 442.8 0.799757 437.867 1.86642Z" fill="#222296"/>
</svg>
